<?xml version="1.0" ?><!DOCTYPE svg  PUBLIC '-//W3C//DTD SVG 1.1//EN'  'http://www.w3.org/Graphics/SVG/1.1/DTD/svg11.dtd'><svg enable-background="new 0 0 130 130" height="130px" id="Layer_1" version="1.1" viewBox="0 0 130 130" width="130px" xml:space="preserve" xmlns="http://www.w3.org/2000/svg" xmlns:xlink="http://www.w3.org/1999/xlink"><g><g><g><circle cx="65" cy="65" fill="#C9F484" r="48"/><circle cx="65" cy="65" fill="#9DD850" r="39.719"/><g><g><path d="M65.584,34.133c-17.064,0-30.898,13.834-30.898,30.898c0,6.264,1.877,12.076,5.076,16.945       l-4.848,13.727l13.727-4.848c4.869,3.199,10.684,5.074,16.943,5.074c17.066,0,30.898-13.832,30.898-30.898       C96.482,47.967,82.65,34.133,65.584,34.133z" fill="#FFFFFF"/></g><path d="M48.641,90.855c4.869,3.199,10.684,5.074,16.943,5.074c7.156,0,13.738-2.438,18.975-6.521      c4.084-5.236,6.521-11.818,6.521-18.975c0-17.066-13.832-30.896-30.898-30.896c-7.154,0-13.736,2.438-18.975,6.52      c-4.082,5.238-6.521,11.82-6.521,18.975c0,6.264,1.877,12.076,5.076,16.945l-4.848,13.727L48.641,90.855z" fill="#E4EFF4"/><g><path d="       M65.584,34.133c-17.064,0-30.898,13.834-30.898,30.898c0,6.264,1.877,12.076,5.076,16.945l-4.848,13.727l13.727-4.848       c4.869,3.199,10.684,5.074,16.943,5.074c17.066,0,30.898-13.832,30.898-30.898C96.482,47.967,82.65,34.133,65.584,34.133z" fill="none" stroke="#343D47" stroke-linecap="round" stroke-linejoin="round" stroke-miterlimit="10" stroke-width="2"/></g></g></g></g><g><g><g><polyline fill="none" points="      47.078,60.326 47.078,65.023 42.383,65.023 42.383,60.326     " stroke="#343D47" stroke-linecap="round" stroke-linejoin="round" stroke-miterlimit="10" stroke-width="2"/><polyline fill="none" points="      42.383,69.717 42.383,65.023 47.078,65.023 47.078,69.717     " stroke="#343D47" stroke-linecap="round" stroke-linejoin="round" stroke-miterlimit="10" stroke-width="2"/></g><g><polyline fill="none" points="      55.613,65.023 50.916,65.023 50.916,60.326 55.613,60.326     " stroke="#343D47" stroke-linecap="round" stroke-linejoin="round" stroke-miterlimit="10" stroke-width="2"/><polyline fill="none" points="      55.613,69.717 50.916,69.717 50.916,65.023 55.613,65.023     " stroke="#343D47" stroke-linecap="round" stroke-linejoin="round" stroke-miterlimit="10" stroke-width="2"/></g><g><line fill="none" stroke="#343D47" stroke-linecap="round" stroke-linejoin="round" stroke-miterlimit="10" stroke-width="2" x1="59.695" x2="59.695" y1="65.023" y2="60.326"/><polyline fill="none" points="      64.393,69.717 59.695,69.717 59.695,65.023     " stroke="#343D47" stroke-linecap="round" stroke-linejoin="round" stroke-miterlimit="10" stroke-width="2"/></g><g><line fill="none" stroke="#343D47" stroke-linecap="round" stroke-linejoin="round" stroke-miterlimit="10" stroke-width="2" x1="68.475" x2="68.475" y1="65.023" y2="60.326"/><polyline fill="none" points="      73.172,69.717 68.475,69.717 68.475,65.023     " stroke="#343D47" stroke-linecap="round" stroke-linejoin="round" stroke-miterlimit="10" stroke-width="2"/></g><g><line fill="none" stroke="#343D47" stroke-linecap="round" stroke-linejoin="round" stroke-miterlimit="10" stroke-width="2" x1="85.213" x2="89.908" y1="60.326" y2="60.326"/><path d="      M85.213,65.023" fill="none" stroke="#343D47" stroke-linecap="round" stroke-linejoin="round" stroke-miterlimit="10" stroke-width="2"/><path d="      M89.908,65.023" fill="none" stroke="#343D47" stroke-linecap="round" stroke-linejoin="round" stroke-miterlimit="10" stroke-width="2"/><path d="      M89.908,65.023" fill="none" stroke="#343D47" stroke-linecap="round" stroke-linejoin="round" stroke-miterlimit="10" stroke-width="2"/><path d="      M85.213,65.023" fill="none" stroke="#343D47" stroke-linecap="round" stroke-linejoin="round" stroke-miterlimit="10" stroke-width="2"/><line fill="none" stroke="#343D47" stroke-linecap="round" stroke-linejoin="round" stroke-miterlimit="10" stroke-width="2" x1="89.908" x2="85.213" y1="69.717" y2="69.717"/><line fill="none" stroke="#343D47" stroke-linecap="round" stroke-linejoin="round" stroke-miterlimit="10" stroke-width="2" x1="85.213" x2="85.213" y1="65.023" y2="60.326"/><line fill="none" stroke="#343D47" stroke-linecap="round" stroke-linejoin="round" stroke-miterlimit="10" stroke-width="2" x1="85.213" x2="85.213" y1="69.717" y2="65.023"/><line fill="none" stroke="#343D47" stroke-linecap="round" stroke-linejoin="round" stroke-miterlimit="10" stroke-width="2" x1="89.908" x2="89.908" y1="65.023" y2="60.326"/><line fill="none" stroke="#343D47" stroke-linecap="round" stroke-linejoin="round" stroke-miterlimit="10" stroke-width="2" x1="89.908" x2="89.908" y1="69.717" y2="65.023"/></g></g><g><line fill="none" stroke="#343D47" stroke-linecap="round" stroke-linejoin="round" stroke-miterlimit="10" stroke-width="2" x1="77.479" x2="77.184" y1="69.717" y2="69.717"/><line fill="none" stroke="#343D47" stroke-linecap="round" stroke-linejoin="round" stroke-miterlimit="10" stroke-width="2" x1="81.309" x2="81.014" y1="69.717" y2="69.717"/></g></g></g></svg>